<svg width="50" height="50" viewBox="0 0 50 50" fill="none" xmlns="http://www.w3.org/2000/svg">
<g clip-path="url(#clip0_114_27)">
<path d="M19.003 37.374C15.522 37.374 12.6899 40.206 12.6899 43.687C12.6899 47.1681 15.522 50.0001 19.003 50.0001C22.484 50.0001 25.3161 47.1681 25.3161 43.687C25.3161 40.206 22.4839 37.374 19.003 37.374ZM19.003 46.2122C17.6103 46.2122 16.4778 45.0797 16.4778 43.687C16.4778 42.2944 17.6103 41.1618 19.003 41.1618C20.395 41.1618 21.5282 42.2944 21.5282 43.687C21.5282 45.0796 20.3957 46.2122 19.003 46.2122Z" fill="black"/>
<path d="M37.6895 37.374C34.2085 37.374 31.3765 40.206 31.3765 43.687C31.3765 47.1681 34.2085 50.0001 37.6895 50.0001C41.1706 50.0001 44.0026 47.1681 44.0026 43.687C44.0026 40.206 41.1706 37.374 37.6895 37.374ZM37.6895 46.2122C36.2969 46.2122 35.1643 45.0797 35.1643 43.687C35.1643 42.2944 36.2969 41.1618 37.6895 41.1618C39.0822 41.1618 40.2147 42.2944 40.2147 43.687C40.2147 45.0796 39.0822 46.2122 37.6895 46.2122Z" fill="black"/>
<path d="M48.6414 12.3314C48.2815 11.8793 47.7361 11.6161 47.1591 11.6161H13.9968L12.2752 2.91547C12.1243 2.15347 11.5234 1.56069 10.7588 1.42056L3.18317 0.0316962C2.15232 -0.158342 1.16746 0.524175 0.978689 1.55317C0.78992 2.58217 1.47107 3.56889 2.50017 3.75766L8.80942 4.9142L14.3674 33.0066C14.5429 33.8936 15.3213 34.533 16.2253 34.533H42.74C43.622 34.533 44.3865 33.9251 44.5854 33.0646L49.0045 13.9361C49.1345 13.3736 49.0007 12.7827 48.6414 12.3314ZM41.2337 30.7452H17.7808L14.7461 15.4046H44.7771L41.2337 30.7452Z" fill="black"/>
</g>
<defs>
<clipPath id="clip0_114_27">
<rect width="50" height="50" fill="white"/>
</clipPath>
</defs>
</svg>
