<svg width="89" height="86" viewBox="0 0 89 86" fill="none" xmlns="http://www.w3.org/2000/svg">
<path d="M17.1178 2.5H70.4272L69.9632 3.77211C68.1994 8.60843 68.1474 13.9033 69.8159 18.7734L70.5008 20.7727H17.1178C12.0719 20.7727 7.98145 16.6822 7.98145 11.6364C7.98145 6.59049 12.0719 2.5 17.1178 2.5Z" stroke="black" stroke-width="5"/>
<rect x="50.7036" y="9.45456" width="12.3333" height="5.09091" fill="black"/>
<path d="M17.1178 43.2273H70.4272L69.9632 44.4994C68.1994 49.3357 68.1474 54.6306 69.8159 59.5006L70.5008 61.5H17.1178C12.0719 61.5 7.98145 57.4095 7.98145 52.3636C7.98145 47.3178 12.0719 43.2273 17.1178 43.2273Z" stroke="black" stroke-width="5"/>
<rect x="50.7036" y="50.1818" width="12.3333" height="5.09091" fill="black"/>
<path d="M53.4564 22.1364H3.51212L4.06852 23.7423C5.67402 28.3764 5.72149 33.408 4.2037 38.0715L3.44291 40.4091H53.4564C58.5023 40.4091 62.5928 36.3186 62.5928 31.2727C62.5928 26.2269 58.5023 22.1364 53.4564 22.1364Z" stroke="black" stroke-width="5"/>
<rect width="11.7167" height="5.09091" transform="matrix(-1 0 0 1 22.1318 29.0909)" fill="black"/>
<path d="M1.43821 82V68.9091H6.23224C7.16122 68.9091 7.9304 69.0625 8.53977 69.3693C9.14915 69.6719 9.60511 70.0831 9.90767 70.603C10.2102 71.1186 10.3615 71.7003 10.3615 72.348C10.3615 72.8935 10.2614 73.3537 10.0611 73.7287C9.8608 74.0994 9.59233 74.3977 9.25568 74.6236C8.9233 74.8452 8.55682 75.0071 8.15625 75.1094V75.2372C8.59091 75.2585 9.01491 75.3991 9.42827 75.6591C9.84588 75.9148 10.1911 76.2791 10.4638 76.7521C10.7365 77.2251 10.8729 77.8004 10.8729 78.478C10.8729 79.147 10.7152 79.7479 10.3999 80.2805C10.0888 80.8089 9.60724 81.2287 8.95526 81.5398C8.30327 81.8466 7.47017 82 6.45597 82H1.43821ZM3.41335 80.3061H6.2642C7.21023 80.3061 7.88778 80.1229 8.29688 79.7564C8.70597 79.3899 8.91051 78.9318 8.91051 78.3821C8.91051 77.9687 8.80611 77.5895 8.5973 77.2443C8.38849 76.8991 8.0902 76.6243 7.70241 76.4197C7.31889 76.2152 6.86293 76.1129 6.33452 76.1129H3.41335V80.3061ZM3.41335 74.5724H6.05966C6.50284 74.5724 6.90128 74.4872 7.25497 74.3168C7.61293 74.1463 7.89631 73.9077 8.10511 73.6009C8.31818 73.2898 8.42472 72.9233 8.42472 72.5014C8.42472 71.9602 8.23509 71.5064 7.85582 71.1399C7.47656 70.7734 6.89489 70.5902 6.1108 70.5902H3.41335V74.5724ZM17.1978 82.1982C16.2773 82.1982 15.4741 81.9872 14.788 81.5653C14.1019 81.1435 13.5692 80.5533 13.19 79.7947C12.8107 79.0362 12.6211 78.1499 12.6211 77.1357C12.6211 76.1172 12.8107 75.2266 13.19 74.4638C13.5692 73.701 14.1019 73.1087 14.788 72.6868C15.4741 72.2649 16.2773 72.054 17.1978 72.054C18.1183 72.054 18.9215 72.2649 19.6076 72.6868C20.2937 73.1087 20.8263 73.701 21.2056 74.4638C21.5849 75.2266 21.7745 76.1172 21.7745 77.1357C21.7745 78.1499 21.5849 79.0362 21.2056 79.7947C20.8263 80.5533 20.2937 81.1435 19.6076 81.5653C18.9215 81.9872 18.1183 82.1982 17.1978 82.1982ZM17.2042 80.5938C17.8008 80.5938 18.2951 80.4361 18.6871 80.1207C19.0792 79.8054 19.369 79.3857 19.5565 78.8615C19.7482 78.3374 19.8441 77.7599 19.8441 77.1293C19.8441 76.5028 19.7482 75.9276 19.5565 75.4034C19.369 74.875 19.0792 74.451 18.6871 74.1314C18.2951 73.8118 17.8008 73.652 17.2042 73.652C16.6033 73.652 16.1048 73.8118 15.7085 74.1314C15.3164 74.451 15.0245 74.875 14.8327 75.4034C14.6452 75.9276 14.5515 76.5028 14.5515 77.1293C14.5515 77.7599 14.6452 78.3374 14.8327 78.8615C15.0245 79.3857 15.3164 79.8054 15.7085 80.1207C16.1048 80.4361 16.6033 80.5938 17.2042 80.5938ZM28.0435 82.1982C27.123 82.1982 26.3198 81.9872 25.6337 81.5653C24.9476 81.1435 24.415 80.5533 24.0357 79.7947C23.6564 79.0362 23.4668 78.1499 23.4668 77.1357C23.4668 76.1172 23.6564 75.2266 24.0357 74.4638C24.415 73.701 24.9476 73.1087 25.6337 72.6868C26.3198 72.2649 27.123 72.054 28.0435 72.054C28.964 72.054 29.7672 72.2649 30.4533 72.6868C31.1394 73.1087 31.6721 73.701 32.0513 74.4638C32.4306 75.2266 32.6202 76.1172 32.6202 77.1357C32.6202 78.1499 32.4306 79.0362 32.0513 79.7947C31.6721 80.5533 31.1394 81.1435 30.4533 81.5653C29.7672 81.9872 28.964 82.1982 28.0435 82.1982ZM28.0499 80.5938C28.6465 80.5938 29.1408 80.4361 29.5328 80.1207C29.9249 79.8054 30.2147 79.3857 30.4022 78.8615C30.5939 78.3374 30.6898 77.7599 30.6898 77.1293C30.6898 76.5028 30.5939 75.9276 30.4022 75.4034C30.2147 74.875 29.9249 74.451 29.5328 74.1314C29.1408 73.8118 28.6465 73.652 28.0499 73.652C27.449 73.652 26.9505 73.8118 26.5542 74.1314C26.1621 74.451 25.8702 74.875 25.6784 75.4034C25.4909 75.9276 25.3972 76.5028 25.3972 77.1293C25.3972 77.7599 25.4909 78.3374 25.6784 78.8615C25.8702 79.3857 26.1621 79.8054 26.5542 80.1207C26.9505 80.4361 27.449 80.5938 28.0499 80.5938ZM36.5114 78.6697L36.4986 76.3366H36.831L40.7429 72.1818H43.0312L38.5696 76.9119H38.2692L36.5114 78.6697ZM34.7536 82V68.9091H36.6648V82H34.7536ZM40.9538 82L37.4382 77.3338L38.755 75.9979L43.2997 82H40.9538Z" fill="black"/>
<path d="M44.2042 70.897V68.9091H54.6488V70.897H50.6026V82H48.2504V70.897H44.2042ZM56.6623 82V68.9091H61.5714C62.5771 68.9091 63.4208 69.0838 64.1026 69.4332C64.7887 69.7827 65.3065 70.2727 65.6559 70.9034C66.0096 71.5298 66.1864 72.2607 66.1864 73.0959C66.1864 73.9354 66.0075 74.6641 65.6495 75.282C65.2958 75.8956 64.7738 76.3707 64.0835 76.7074C63.3931 77.0398 62.5451 77.206 61.5394 77.206H58.043V75.2372H61.2198C61.8079 75.2372 62.2894 75.1562 62.6644 74.9943C63.0394 74.8281 63.3164 74.5874 63.4954 74.272C63.6786 73.9524 63.7702 73.5604 63.7702 73.0959C63.7702 72.6314 63.6786 72.2351 63.4954 71.907C63.3121 71.5746 63.033 71.3232 62.658 71.1527C62.283 70.978 61.7994 70.8906 61.207 70.8906H59.0337V82H56.6623ZM63.4251 76.0682L66.6658 82H64.0195L60.8363 76.0682H63.4251ZM68.3693 82V68.9091H76.8835V70.897H70.7408V74.451H76.4425V76.4389H70.7408V80.0121H76.9347V82H68.3693ZM79.3029 82V68.9091H87.8171V70.897H81.6744V74.451H87.3761V76.4389H81.6744V80.0121H87.8683V82H79.3029Z" fill="#1265B1"/>
</svg>
