<svg width="109" height="118" viewBox="0 0 109 118" fill="none" xmlns="http://www.w3.org/2000/svg">
<path d="M9.24084 16.5455C9.24084 8.78837 15.5292 2.5 23.2863 2.5H87.5902L85.4002 9.44311C84.0511 13.7203 84.0111 18.3031 85.2852 22.6032L87.6519 30.5909H23.2863C15.5292 30.5909 9.24084 24.3025 9.24084 16.5455Z" stroke="white" stroke-width="5"/>
<rect x="62.3518" y="13.4434" width="15.1667" height="7.23864" fill="white"/>
<path d="M9.24084 74.4546C9.24084 66.6975 15.5292 60.4092 23.2863 60.4092H87.5902L85.4002 67.3523C84.0511 71.6295 84.0111 76.2122 85.2852 80.5124L87.6519 88.5001H23.2863C15.5292 88.5001 9.24084 82.2117 9.24084 74.4546Z" stroke="white" stroke-width="5"/>
<rect x="62.3518" y="71.3523" width="15.1667" height="7.23864" fill="white"/>
<path d="M77.5464 44.4661C77.5464 36.709 71.258 30.4207 63.5009 30.4207H3.35901L5.52978 37.6652C6.75536 41.7554 6.79181 46.1098 5.6349 50.2199L3.30093 58.5116H63.501C71.258 58.5116 77.5464 52.2232 77.5464 44.4661Z" stroke="white" stroke-width="5"/>
<rect width="14.4083" height="7.23864" transform="matrix(-1 0 0 1 27.2158 41.3638)" fill="white"/>
<path d="M1.75781 113V97H7.61719C8.7526 97 9.69271 97.1875 10.4375 97.5625C11.1823 97.9323 11.7396 98.4349 12.1094 99.0703C12.4792 99.7005 12.6641 100.411 12.6641 101.203C12.6641 101.87 12.5417 102.432 12.2969 102.891C12.0521 103.344 11.724 103.708 11.3125 103.984C10.9063 104.255 10.4583 104.453 9.96875 104.578V104.734C10.5 104.76 11.0182 104.932 11.5234 105.25C12.0339 105.562 12.4557 106.008 12.7891 106.586C13.1224 107.164 13.2891 107.867 13.2891 108.695C13.2891 109.513 13.0964 110.247 12.7109 110.898C12.3307 111.544 11.7422 112.057 10.9453 112.437C10.1484 112.812 9.13021 113 7.89063 113H1.75781ZM4.17188 110.93H7.65625C8.8125 110.93 9.64063 110.706 10.1406 110.258C10.6406 109.81 10.8906 109.25 10.8906 108.578C10.8906 108.073 10.763 107.609 10.5078 107.187C10.2526 106.766 9.88802 106.43 9.41406 106.18C8.94531 105.93 8.38802 105.805 7.74219 105.805H4.17188V110.93ZM4.17188 103.922H7.40625C7.94792 103.922 8.4349 103.818 8.86719 103.609C9.30469 103.401 9.65104 103.109 9.90625 102.734C10.1667 102.354 10.2969 101.906 10.2969 101.391C10.2969 100.729 10.0651 100.174 9.60156 99.7266C9.13802 99.2786 8.42708 99.0547 7.46875 99.0547H4.17188V103.922ZM21.0195 113.242C19.8945 113.242 18.9128 112.984 18.0742 112.469C17.2357 111.953 16.5846 111.232 16.1211 110.305C15.6576 109.378 15.4258 108.294 15.4258 107.055C15.4258 105.81 15.6576 104.721 16.1211 103.789C16.5846 102.857 17.2357 102.133 18.0742 101.617C18.9128 101.102 19.8945 100.844 21.0195 100.844C22.1445 100.844 23.1263 101.102 23.9648 101.617C24.8034 102.133 25.4544 102.857 25.918 103.789C26.3815 104.721 26.6133 105.81 26.6133 107.055C26.6133 108.294 26.3815 109.378 25.918 110.305C25.4544 111.232 24.8034 111.953 23.9648 112.469C23.1263 112.984 22.1445 113.242 21.0195 113.242ZM21.0273 111.281C21.7565 111.281 22.3607 111.089 22.8398 110.703C23.319 110.318 23.6732 109.805 23.9023 109.164C24.1367 108.523 24.2539 107.818 24.2539 107.047C24.2539 106.281 24.1367 105.578 23.9023 104.937C23.6732 104.292 23.319 103.773 22.8398 103.383C22.3607 102.992 21.7565 102.797 21.0273 102.797C20.293 102.797 19.6836 102.992 19.1992 103.383C18.7201 103.773 18.3633 104.292 18.1289 104.937C17.8997 105.578 17.7852 106.281 17.7852 107.047C17.7852 107.818 17.8997 108.523 18.1289 109.164C18.3633 109.805 18.7201 110.318 19.1992 110.703C19.6836 111.089 20.293 111.281 21.0273 111.281ZM34.2754 113.242C33.1504 113.242 32.1686 112.984 31.3301 112.469C30.4915 111.953 29.8405 111.232 29.377 110.305C28.9134 109.378 28.6816 108.294 28.6816 107.055C28.6816 105.81 28.9134 104.721 29.377 103.789C29.8405 102.857 30.4915 102.133 31.3301 101.617C32.1686 101.102 33.1504 100.844 34.2754 100.844C35.4004 100.844 36.3822 101.102 37.2207 101.617C38.0592 102.133 38.7103 102.857 39.1738 103.789C39.6374 104.721 39.8691 105.81 39.8691 107.055C39.8691 108.294 39.6374 109.378 39.1738 110.305C38.7103 111.232 38.0592 111.953 37.2207 112.469C36.3822 112.984 35.4004 113.242 34.2754 113.242ZM34.2832 111.281C35.0124 111.281 35.6165 111.089 36.0957 110.703C36.5749 110.318 36.929 109.805 37.1582 109.164C37.3926 108.523 37.5098 107.818 37.5098 107.047C37.5098 106.281 37.3926 105.578 37.1582 104.937C36.929 104.292 36.5749 103.773 36.0957 103.383C35.6165 102.992 35.0124 102.797 34.2832 102.797C33.5488 102.797 32.9395 102.992 32.4551 103.383C31.9759 103.773 31.6191 104.292 31.3848 104.937C31.1556 105.578 31.041 106.281 31.041 107.047C31.041 107.818 31.1556 108.523 31.3848 109.164C31.6191 109.805 31.9759 110.318 32.4551 110.703C32.9395 111.089 33.5488 111.281 34.2832 111.281ZM44.625 108.93L44.6094 106.078H45.0156L49.7969 101H52.5938L47.1406 106.781H46.7734L44.625 108.93ZM42.4766 113V97H44.8125V113H42.4766ZM50.0547 113L45.7578 107.297L47.3672 105.664L52.9219 113H50.0547Z" fill="white"/>
<path d="M54.0273 99.4297V97H66.793V99.4297H61.8477V113H58.9727V99.4297H54.0273ZM69.2539 113V97H75.2539C76.4831 97 77.5143 97.2135 78.3477 97.6406C79.1862 98.0677 79.819 98.6667 80.2461 99.4375C80.6784 100.203 80.8945 101.096 80.8945 102.117C80.8945 103.143 80.6758 104.034 80.2383 104.789C79.806 105.539 79.168 106.12 78.3242 106.531C77.4805 106.937 76.444 107.141 75.2148 107.141H70.9414V104.734H74.8242C75.543 104.734 76.1315 104.635 76.5898 104.437C77.0482 104.234 77.3867 103.94 77.6055 103.555C77.8294 103.164 77.9414 102.685 77.9414 102.117C77.9414 101.549 77.8294 101.065 77.6055 100.664C77.3815 100.258 77.0404 99.9505 76.582 99.7422C76.1237 99.5286 75.5326 99.4219 74.8086 99.4219H72.1523V113H69.2539ZM77.5195 105.75L81.4805 113H78.2461L74.3555 105.75H77.5195ZM83.5625 113V97H93.9687V99.4297H86.4609V103.773H93.4297V106.203H86.4609V110.57H94.0313V113H83.5625ZM96.9258 113V97H107.332V99.4297H99.8242V103.773H106.793V106.203H99.8242V110.57H107.395V113H96.9258Z" fill="#1265B1"/>
</svg>
