<svg width="31" height="32" viewBox="0 0 31 32" fill="none" xmlns="http://www.w3.org/2000/svg">
<path d="M23.2315 21.6L18.9496 21.7408L26.3113 29.4224L28.503 27.16L23.2315 21.6Z" fill="url(#paint0_linear_101_87)"/>
<path d="M18.8425 21.6C17.4568 22.6048 15.772 23.2 13.95 23.2C9.24183 23.2 5.42495 19.26 5.42495 14.4C5.42495 9.53999 9.24183 5.59999 13.95 5.59999C18.6581 5.59999 22.475 9.53999 22.475 14.4C22.475 16.5272 21.7434 18.4784 20.5258 20H24.2272C25.0851 18.3272 25.575 16.424 25.575 14.4C25.575 7.77279 20.3701 2.39999 13.95 2.39999C7.52985 2.39999 2.32495 7.77279 2.32495 14.4C2.32495 21.0272 7.52985 26.4 13.95 26.4C17.7498 26.4 21.1133 24.5096 23.2344 21.6H18.8425Z" fill="#B2B2B2"/>
<defs>
<linearGradient id="paint0_linear_101_87" x1="24.735" y1="25.4792" x2="19.3032" y2="21.0102" gradientUnits="userSpaceOnUse">
<stop stop-color="#B2B2B2"/>
<stop offset="0.999"/>
</linearGradient>
</defs>
</svg>
