<svg width="249" height="35" viewBox="0 0 249 35" fill="none" xmlns="http://www.w3.org/2000/svg">
<path d="M17.5 0L21.429 12.0922L34.1435 12.0922L23.8572 19.5656L27.7862 31.6578L17.5 24.1844L7.21376 31.6578L11.1428 19.5656L0.85651 12.0922L13.571 12.0922L17.5 0Z" fill="#FFC700"/>
<path d="M57.5 0L61.429 12.0922L74.1435 12.0922L63.8572 19.5656L67.7862 31.6578L57.5 24.1844L47.2138 31.6578L51.1428 19.5656L40.8565 12.0922L53.571 12.0922L57.5 0Z" fill="#FFC700"/>
<path d="M97.5 0L101.429 12.0922L114.143 12.0922L103.857 19.5656L107.786 31.6578L97.5 24.1844L87.2138 31.6578L91.1428 19.5656L80.8565 12.0922L93.571 12.0922L97.5 0Z" fill="#FFC700"/>
<path d="M137.5 0L141.429 12.0922L154.143 12.0922L143.857 19.5656L147.786 31.6578L137.5 24.1844L127.214 31.6578L131.143 19.5656L120.857 12.0922L133.571 12.0922L137.5 0Z" fill="#FFC700"/>
<path d="M177.5 0L181.429 12.0922L194.143 12.0922L183.857 19.5656L187.786 31.6578L177.5 24.1844L167.214 31.6578L171.143 19.5656L160.857 12.0922L173.571 12.0922L177.5 0Z" fill="#FFC700"/>
<path d="M215.77 17.5455C215.77 15.2187 216.071 13.0798 216.675 11.1286C217.284 9.17116 218.152 7.37074 219.278 5.72727H221.199C220.756 6.33665 220.34 7.08759 219.952 7.98011C219.571 8.86648 219.235 9.84209 218.946 10.907C218.657 11.9657 218.429 13.0613 218.263 14.1939C218.103 15.3265 218.023 16.4437 218.023 17.5455C218.023 19.0104 218.164 20.4969 218.447 22.005C218.731 23.513 219.112 24.9134 219.592 26.206C220.072 27.4986 220.608 28.5511 221.199 29.3636H219.278C218.152 27.7202 217.284 25.9228 216.675 23.9716C216.071 22.0142 215.77 19.8722 215.77 17.5455ZM230.545 27.2585C229.154 27.2585 227.969 26.88 226.99 26.1229C226.012 25.3596 225.264 24.2547 224.747 22.8082C224.23 21.3556 223.971 19.6013 223.971 17.5455C223.971 15.5019 224.23 13.7569 224.747 12.3104C225.27 10.8577 226.021 9.74976 226.999 8.9865C227.984 8.21709 229.166 7.83239 230.545 7.83239C231.924 7.83239 233.102 8.21709 234.081 8.9865C235.066 9.74976 235.817 10.8577 236.334 12.3104C236.857 13.7569 237.119 15.5019 237.119 17.5455C237.119 19.6013 236.86 21.3556 236.343 22.8082C235.826 24.2547 235.078 25.3596 234.1 26.1229C233.121 26.88 231.936 27.2585 230.545 27.2585ZM230.545 25.2273C231.924 25.2273 232.995 24.5625 233.758 23.233C234.521 21.9034 234.903 20.0076 234.903 17.5455C234.903 15.9081 234.727 14.514 234.377 13.3629C234.032 12.2119 233.533 11.3348 232.881 10.7315C232.235 10.1283 231.456 9.8267 230.545 9.8267C229.178 9.8267 228.11 10.5007 227.341 11.8487C226.572 13.1906 226.187 15.0895 226.187 17.5455C226.187 19.1828 226.359 20.5739 226.704 21.7188C227.049 22.8636 227.544 23.7346 228.191 24.3317C228.843 24.9287 229.628 25.2273 230.545 25.2273ZM245.318 17.5455C245.318 19.8722 245.013 22.0142 244.404 23.9716C243.8 25.9228 242.936 27.7202 241.809 29.3636H239.889C240.332 28.7543 240.744 28.0033 241.126 27.1108C241.514 26.2244 241.852 25.2519 242.142 24.1932C242.431 23.1283 242.655 22.0296 242.816 20.897C242.982 19.7583 243.065 18.6411 243.065 17.5455C243.065 16.0805 242.923 14.594 242.64 13.0859C242.357 11.5779 241.975 10.1776 241.495 8.88494C241.015 7.59233 240.48 6.53977 239.889 5.72727H241.809C242.936 7.37074 243.8 9.17116 244.404 11.1286C245.013 13.0798 245.318 15.2187 245.318 17.5455Z" fill="#8A8A8A"/>
</svg>
