<svg width="50" height="50" viewBox="0 0 50 50" fill="none" xmlns="http://www.w3.org/2000/svg">
<rect width="50" height="50" fill="white"/>
<g clip-path="url(#clip0_101_301)">
<path fill-rule="evenodd" clip-rule="evenodd" d="M0 0V50H50V0H0ZM42.2873 11.0637L36.4127 39.3204C36.2744 39.9876 35.4921 40.2899 34.9401 39.8888L26.9209 34.0667C26.4341 33.7132 25.7702 33.732 25.3042 34.112L20.858 37.7363C20.3421 38.1582 19.5645 37.9231 19.3669 37.2876L16.2797 27.3589L8.30352 24.3821C7.4933 24.0786 7.48637 22.9347 8.29429 22.6235L41.0286 9.99549C41.7225 9.72714 42.4385 10.3351 42.2873 11.0637Z" fill="black"/>
<path fill-rule="evenodd" clip-rule="evenodd" d="M34.458 16.1736L18.8697 25.7744C18.2722 26.1431 17.991 26.8646 18.1837 27.5401L19.8691 33.4622C19.989 33.8817 20.5978 33.8389 20.6561 33.4054L21.0942 30.1578C21.1769 29.5463 21.4684 28.9827 21.9208 28.562L34.7855 16.6035C35.0264 16.3804 34.738 16.0016 34.458 16.1736Z" fill="black"/>
</g>
<defs>
<clipPath id="clip0_101_301">
<rect width="50" height="50" fill="white"/>
</clipPath>
</defs>
</svg>
